<svg width="128" height="160" viewBox="0 0 128 160" fill="none" xmlns="http://www.w3.org/2000/svg">
<path d="M18.3 32.8C18.7 32.8 19.1 32.5 19.1 32V16.3C19.1 15.9 18.8 15.5 18.3 15.5C17.9 15.5 17.5 15.8 17.5 16.3V32.1C17.6 32.5 17.9 32.8 18.3 32.8Z" fill="#7510F7"/>
<path d="M18.3 43.0999C18.7 43.0999 19.1 42.7999 19.1 42.2999V37.1999C19.1 36.7999 18.8 36.3999 18.3 36.3999C17.9 36.3999 17.5 36.6999 17.5 37.1999V42.2999C17.6 42.7999 17.9 43.0999 18.3 43.0999Z" fill="#7510F7"/>
<path d="M126.7 76.2C126.3 76.2 125.9 76.5 125.9 77V92.8C125.9 93.2 126.2 93.6 126.7 93.6C127.1 93.6 127.5 93.3 127.5 92.8V76.9C127.5 76.5 127.2 76.2 126.7 76.2Z" fill="#7510F7"/>
<path d="M126.7 97.0999C126.3 97.0999 125.9 97.3999 125.9 97.8999V103C125.9 103.4 126.2 103.8 126.7 103.8C127.1 103.8 127.5 103.5 127.5 103V97.8999C127.5 97.4999 127.2 97.0999 126.7 97.0999Z" fill="#7510F7"/>
<path d="M112.6 42.8999L110.9 41.1999C110.6 40.8999 110.1 40.8999 109.8 41.1999C109.5 41.4999 109.5 41.9999 109.8 42.2999L111.5 43.9999C111.6 44.0999 111.8 44.1999 112 44.1999C112.2 44.1999 112.4 44.0999 112.5 43.9999C112.9 43.6999 112.9 43.1999 112.6 42.8999Z" fill="#7510F7"/>
<path d="M115.2 47.7L116.9 49.4C117 49.5 117.2 49.6 117.4 49.6C117.6 49.6 117.8 49.5 117.9 49.4C118.2 49.1 118.2 48.6 117.9 48.3L116.2 46.6C115.9 46.3 115.4 46.3 115.1 46.6C114.9 46.9 114.9 47.4 115.2 47.7Z" fill="#7510F7"/>
<path d="M111.5 46.6L109.8 48.3C109.5 48.6 109.5 49.1 109.8 49.4C109.9 49.5 110.1 49.6 110.3 49.6C110.5 49.6 110.7 49.5 110.8 49.4L112.5 47.7C112.8 47.4 112.8 46.9 112.5 46.6C112.3 46.3 111.8 46.3 111.5 46.6Z" fill="#7510F7"/>
<path d="M115.7 44.1999C115.9 44.1999 116.1 44.0999 116.2 43.9999L117.9 42.2999C118.2 41.9999 118.2 41.4999 117.9 41.1999C117.6 40.8999 117.1 40.8999 116.8 41.1999L115.1 42.8999C114.8 43.1999 114.8 43.6999 115.1 43.9999C115.3 44.0999 115.5 44.1999 115.7 44.1999Z" fill="#7510F7"/>
<path d="M3.4 60.9C3.5 61 3.7 61.1 3.9 61.1C4.1 61.1 4.3 61 4.4 60.9C4.7 60.6 4.7 60.1 4.4 59.8L2.7 58.1C2.4 57.8 1.9 57.8 1.6 58.1C1.3 58.4 1.3 58.9 1.6 59.2L3.4 60.9Z" fill="#7510F7"/>
<path d="M8.70005 66.2999C8.80005 66.3999 9.00005 66.4999 9.20005 66.4999C9.40005 66.4999 9.60005 66.3999 9.70005 66.2999C10 65.9999 10 65.4999 9.70005 65.1999L8.00005 63.4999C7.70005 63.1999 7.20005 63.1999 6.90005 63.4999C6.60005 63.7999 6.60005 64.2999 6.90005 64.5999L8.70005 66.2999Z" fill="#7510F7"/>
<path d="M2.29995 66.4999C2.49995 66.4999 2.69995 66.3999 2.79995 66.2999L4.49995 64.5999C4.79995 64.2999 4.79995 63.7999 4.49995 63.4999C4.19995 63.1999 3.69995 63.1999 3.39995 63.4999L1.79995 65.1999C1.49995 65.4999 1.49995 65.9999 1.79995 66.2999C1.89995 66.3999 2.09995 66.4999 2.29995 66.4999Z" fill="#7510F7"/>
<path d="M7.6 61.1999C7.8 61.1999 8 61.0999 8.1 60.9999L9.8 59.2999C10.1 58.9999 10.1 58.4999 9.8 58.1999C9.5 57.8999 9 57.8999 8.7 58.1999L7.1 59.8999C6.8 60.1999 6.8 60.6999 7.1 60.9999C7.2 61.0999 7.4 61.1999 7.6 61.1999Z" fill="#7510F7"/>
<path d="M91.1 114.6C90.8 114.3 90.3 114.3 90 114.6C89.7 114.9 89.7 115.4 90 115.7L91.7 117.4C91.8 117.5 92 117.6 92.2 117.6C92.4 117.6 92.6 117.5 92.7 117.4C93 117.1 93 116.6 92.7 116.3L91.1 114.6Z" fill="#7510F7"/>
<path d="M96.5 119.9C96.2 119.6 95.7 119.6 95.4 119.9C95.1 120.2 95.1 120.7 95.4 121L97.1 122.7C97.2 122.8 97.4 122.9 97.6 122.9C97.8 122.9 98 122.8 98.1 122.7C98.4 122.4 98.4 121.9 98.1 121.6L96.5 119.9Z" fill="#7510F7"/>
<path d="M91.7 119.9L90 121.6C89.7 121.9 89.7 122.4 90 122.7C90.1 122.8 90.3 122.9 90.5 122.9C90.7 122.9 90.9 122.8 91 122.7L92.7 121C93 120.7 93 120.2 92.7 119.9C92.5 119.6 92 119.6 91.7 119.9Z" fill="#7510F7"/>
<path d="M97.1 114.6L95.4 116.3C95.1 116.6 95.1 117.1 95.4 117.4C95.5 117.5 95.7 117.6 95.9 117.6C96.1 117.6 96.3 117.5 96.4 117.4L98.1 115.7C98.4 115.4 98.4 114.9 98.1 114.6C97.8 114.3 97.4 114.3 97.1 114.6Z" fill="#7510F7"/>
<path d="M34.9 11.6999C37.3 11.6999 39.3 9.6999 39.3 7.2999C39.3 4.8999 37.3 2.8999 34.9 2.8999C32.5 2.8999 30.5 4.8999 30.5 7.2999C30.5 9.6999 32.5 11.6999 34.9 11.6999ZM34.9 4.2999C36.5 4.2999 37.8 5.5999 37.8 7.1999C37.8 8.7999 36.5 10.0999 34.9 10.0999C33.3 10.0999 32 8.7999 32 7.1999C32 5.5999 33.3 4.2999 34.9 4.2999Z" fill="#7510F7"/>
<path d="M55.8 108.3C53.4 108.3 51.4 110.3 51.4 112.7C51.4 115.1 53.4 117.1 55.8 117.1C58.2 117.1 60.2 115.1 60.2 112.7C60.2 110.3 58.2 108.3 55.8 108.3ZM55.8 115.7C54.2 115.7 52.9 114.4 52.9 112.8C52.9 111.2 54.2 109.9 55.8 109.9C57.4 109.9 58.7 111.2 58.7 112.8C58.7 114.4 57.4 115.7 55.8 115.7Z" fill="#7510F7"/>
<path d="M94.1 7.9999H111.2C111.6 7.9999 112 7.6999 112 7.1999C112 6.7999 111.7 6.3999 111.2 6.3999H94.1C93.7 6.3999 93.3 6.6999 93.3 7.1999C93.4 7.5999 93.7 7.9999 94.1 7.9999Z" fill="#7510F7"/>
<path d="M122.3 6.5H116.8C116.4 6.5 116 6.8 116 7.3C116 7.7 116.3 8.1 116.8 8.1H122.3C122.7 8.1 123.1 7.8 123.1 7.3C123 6.8 122.7 6.5 122.3 6.5Z" fill="#7510F7"/>
<path d="M122.3 12.2998H110.4C110 12.2998 109.6 12.5998 109.6 13.0998C109.6 13.4998 109.9 13.8998 110.4 13.8998H122.3C122.7 13.8998 123.1 13.5998 123.1 13.0998C123 12.6998 122.7 12.2998 122.3 12.2998Z" fill="#7510F7"/>
<path d="M101.4 12.2998C101 12.2998 100.6 12.5998 100.6 13.0998C100.6 13.4998 100.9 13.8998 101.4 13.8998H105.2C105.6 13.8998 106 13.5998 106 13.0998C106 12.6998 105.7 12.2998 105.2 12.2998H101.4Z" fill="#7510F7"/>
<path d="M29.4 123.7H12.4C12 123.7 11.6 124 11.6 124.5C11.6 124.9 11.9 125.3 12.4 125.3H29.5C29.9 125.3 30.3 125 30.3 124.5C30.2 124 29.8 123.7 29.4 123.7Z" fill="#7510F7"/>
<path d="M6.8 123.7H1.3C0.9 123.7 0.5 124 0.5 124.5C0.5 124.9 0.8 125.3 1.3 125.3H6.8C7.2 125.3 7.6 125 7.6 124.5C7.5 124 7.2 123.7 6.8 123.7Z" fill="#7510F7"/>
<path d="M1.3 119.3H13.2C13.6 119.3 14 119 14 118.5C14 118.1 13.7 117.7 13.2 117.7H1.3C0.9 117.7 0.5 118 0.5 118.5C0.5 119 0.8 119.3 1.3 119.3Z" fill="#7510F7"/>
<path d="M22.1 119.3C22.5 119.3 22.9 119 22.9 118.5C22.9 118.1 22.6 117.7 22.1 117.7H18.3C17.9 117.7 17.5 118 17.5 118.5C17.5 118.9 17.8 119.3 18.3 119.3H22.1Z" fill="#7510F7"/>
<path d="M64.8 47.6C74.9 47.6 83.1 39.4 83.1 29.3C83.1 19.2 74.9 11 64.8 11C54.7 11 46.5 19.2 46.5 29.3C46.5 39.4 54.7 47.6 64.8 47.6ZM64.8 12.5C74.1 12.5 81.6 20 81.6 29.3C81.6 38.6 74.1 46.1 64.8 46.1C55.5 46.1 48 38.6 48 29.3C48 20.1 55.5 12.5 64.8 12.5Z" fill="#7510F7"/>
<path d="M77.8 48.4C77.6 48 77.1 47.9 76.8 48.1C76.4 48.3 76.3 48.8 76.5 49.1L87.9 68.8L82.2 66.7C81.8 66.6 81.4 66.8 81.2 67.1C81.1 67.5 81.3 67.9 81.6 68.1L89.2 71C89.3 71 89.4 71 89.5 71C89.6 71 89.8 71 89.9 70.9C90 70.8 90.1 70.8 90.1 70.7V70.6C90.1 70.5 90.2 70.5 90.2 70.4L91.5 62.4C91.6 62 91.3 61.6 90.9 61.5C90.5 61.4 90.1 61.7 90 62.1L89 68.1L77.8 48.4Z" fill="#7510F7"/>
<path d="M52.8 48.1C52.4 47.9 52 48 51.8 48.4L40.3 68.1L39.3 62.1C39.2 61.7 38.9 61.4 38.4 61.5C38 61.6 37.7 62 37.8 62.4L39.1 70.4C39.1 70.5 39.1 70.5 39.2 70.6V70.7C39.3 70.8 39.3 70.9 39.4 70.9C39.5 71 39.6 71 39.8 71C39.9 71 40 71 40.1 71L47.7 68.1C48.1 68 48.3 67.5 48.1 67.1C48 66.7 47.5 66.5 47.1 66.7L41.4 68.8L53 49.2C53.2 48.8 53.1 48.3 52.8 48.1Z" fill="#7510F7"/>
<path d="M99.9 71.7C90.1 71.7 82 79.5 81.6 89.2H47.7999C47.3999 79.5 39.4 71.7 29.5 71.7C19.4 71.7 11.2 79.9 11.2 90C11.2 100.1 19.4 108.3 29.5 108.3C39.2999 108.3 47.3999 100.5 47.7999 90.8H81.6C82 100.5 90 108.3 99.9 108.3C110 108.3 118.2 100.1 118.2 90C118.2 79.9 110 71.7 99.9 71.7ZM29.6 106.7C20.3 106.7 12.8 99.2 12.8 89.9C12.8 80.6 20.3 73.1 29.6 73.1C38.6 73.1 46 80.2 46.4 89.1H34.0999C33.6999 87 31.9 85.3 29.6 85.3C27.1 85.3 25.1 87.3 25.1 89.8C25.1 92.3 27.1 94.3 29.6 94.3C31.8 94.3 33.6999 92.7 34.0999 90.5H46.4C45.9 99.6 38.6 106.7 29.6 106.7ZM32.5999 90C32.5999 91.7 31.2 93 29.6 93C28 93 26.6 91.6 26.6 90C26.6 88.4 28 87 29.6 87C31.2 87 32.5999 88.3 32.5999 90ZM99.9 106.7C90.9 106.7 83.5 99.6 83.1 90.7H95.4C95.8 92.8 97.6 94.5 99.9 94.5C102.4 94.5 104.4 92.5 104.4 90C104.4 87.5 102.4 85.5 99.9 85.5C97.7 85.5 95.8 87.1 95.4 89.3H83.2C83.6 80.4 90.9 73.3 100 73.3C109.3 73.3 116.8 80.8 116.8 90.1C116.7 99.2 109.2 106.7 99.9 106.7ZM96.9 90C96.9 88.3 98.3 87 99.9 87C101.6 87 102.9 88.4 102.9 90C102.9 91.6 101.5 93 99.9 93C98.3 93 96.9 91.6 96.9 90Z" fill="#7510F7"/>
<path d="M73.8 36H55.8C55.4 36 55 36.3 55 36.8C55 37.2 55.3 37.6 55.8 37.6H73.8C74.2 37.6 74.6 37.3 74.6 36.8C74.5 36.4 74.2 36 73.8 36Z" fill="#7510F7"/>
<path d="M53.8 32.4999H75.7C76.1 32.4999 76.5 32.1999 76.5 31.6999C76.5 31.2999 76.2 30.8999 75.7 30.8999H53.8C53.4 30.8999 53 31.1999 53 31.6999C53 32.1999 53.4 32.4999 53.8 32.4999Z" fill="#7510F7"/>
<path d="M53.8 27.3998H75.7C76.1 27.3998 76.5 27.0998 76.5 26.5998C76.5 26.1998 76.2 25.7998 75.7 25.7998H53.8C53.4 25.7998 53 26.0998 53 26.5998C53 27.0998 53.4 27.3998 53.8 27.3998Z" fill="#7510F7"/>
<path d="M55.8 22.3998H73.8C74.2 22.3998 74.6 22.0998 74.6 21.5998C74.6 21.1998 74.3 20.7998 73.8 20.7998H55.8C55.4 20.7998 55 21.0998 55 21.5998C55 22.0998 55.3 22.3998 55.8 22.3998Z" fill="#7510F7"/>
</svg>
