<svg width="128" height="117" viewBox="0 0 128 117" fill="none" xmlns="http://www.w3.org/2000/svg">
<path d="M43.9 26.1C47.6 25.9 51 26.1 54.0999 26.6C54.8999 26.7 55.7999 26.9 56.5999 26.9C57.5 26.9 58.3999 26.8 59.2999 26.3C60.3999 25.8 61.2999 25 61.7999 23.9C63.2999 25.8 63.9 28 64 28.4V34.8H21.5C18.6 34.8 16.2 37.2 16.2 40.1V91.3C16.2 91.7 16.5 92 16.9 92H112.2C112.6 92 112.9 91.7 112.9 91.3V40.2C112.9 37.3 110.5 34.9 107.6 34.9H65.4V23.5C65.5 23.1 66.3 19.4 68.9 16.4C69.6 18.3 71 19.7 72.8 20.5C74.1 21.1 75.3999 21.3 76.6999 21.3C77.8999 21.3 79.1 21.1 80.3 20.9C84.9 20.2 89.8999 20 95.3999 20.2C95.7999 20.2 96.1 19.9 96.2 19.6C96.2 19.2 95.9999 18.9 95.5999 18.8C92.2999 18.1 89.2999 14.2 87.2 11.4C86.8999 11.1 86.7 10.8 86.5 10.5C84.1 7.39999 80.3999 5.39999 77 5.29999C74.5 5.19999 72.2999 6.19999 70.5999 8.09999C69 9.89999 68.2999 12.3 68.5999 14.7C67.1999 16.1 66.1999 17.7 65.5999 19.1V8.19999C65.5 6.69999 65.6999 2.59999 67.6999 1.79999C68.0999 1.59999 68.2999 1.19999 68.0999 0.799994C67.8999 0.399994 67.5 0.199994 67.0999 0.399994C63.6999 1.79999 64 7.99999 64 8.19999V24.4C63.5999 23.7 63 22.9 62.4 22.3C62.7 20.5 62.2 18.7 61 17.4C59.7999 16.1 58.2 15.4 56.5 15.5C54.0999 15.6 51.5 17 49.9 19.1L49.4 19.7C48 21.6 46 24.2 43.7999 24.6C43.4 24.7 43.2 25 43.2 25.4C43.2 25.9 43.5 26.2 43.9 26.1ZM111.5 40.2V90.7H17.6V40.2C17.6 38.1 19.3 36.4 21.4 36.4H107.6C109.8 36.3 111.5 38 111.5 40.2ZM71.5 8.99999C72.9 7.49999 74.5999 6.69999 76.5 6.69999C76.5999 6.69999 76.7 6.69999 76.8 6.69999C80.2 6.79999 83.5 9.09999 85.2 11.4C85.3999 11.7 85.7 12 85.8999 12.3C87.4999 14.4 89.4999 17 91.8999 18.7C87.7 18.7 83.7 18.9 80 19.5C77.5999 19.9 75.6 20.2 73.3 19.2C71.6 18.4 70.4 17 70 15.2C70.7 14.6 71.5 14 72.4 13.6C72.7 13.6 74.0999 13.6 76.5999 15.5C76.6999 15.6 76.9 15.6 77 15.6C77.2 15.6 77.3999 15.5 77.5999 15.3C77.7999 15 77.7999 14.5 77.5 14.3C76.5 13.5 75.6 13 74.9 12.7C75.8 12.6 79.4 12.3 83 16.2C83.3 16.5 83.7 16.5 84 16.3C84.3 16 84.2999 15.6 84.0999 15.3C79.4999 10.2 74.6 11.4 74.4 11.4C72.6 11.8 71.2 12.6 70 13.5C69.7999 11.8 70.4 10.2 71.5 8.99999ZM50.4 20.6L50.9 20C52.1 18.5 54.2 17 56.4 16.9C57.7 16.9 58.8999 17.3 59.7999 18.4C60.5 19.1 60.8 20.1 60.9 21.1C60.1 20.6 59.2 20.2 58.2 19.9C58.1 19.9 56.2 19.4 53.9 20.6C53.5 20.8 53.3999 21.2 53.5999 21.6C53.7999 22 54.1999 22.1 54.5999 21.9C56.3999 21 57.8 21.3 57.9 21.3C59 21.6 59.9 22.1 60.7 22.7C60.2999 23.7 59.7 24.4 58.7 24.8C57.2 25.4 56 25.2 54.2999 25C52 24.6 49.5 24.5 46.9 24.5C48.3 23.4 49.5 21.9 50.4 20.6Z" fill="#7510F7"/>
<path d="M100.4 15.9C100.5 16 100.7 16.1 100.9 16.1C101.1 16.1 101.3 16 101.4 15.9C101.7 15.6 101.7 15.1 101.4 14.9L99.8 13.3C99.5 13 99 13 98.8 13.3C98.5 13.6 98.5 14.1 98.8 14.3L100.4 15.9Z" fill="#7510F7"/>
<path d="M105.6 21.0999C105.7 21.1999 105.9 21.2999 106.1 21.2999C106.3 21.2999 106.5 21.1999 106.6 21.0999C106.9 20.7999 106.9 20.2999 106.6 20.0999L105 18.4999C104.7 18.1999 104.2 18.1999 104 18.4999C103.7 18.7999 103.7 19.2999 104 19.4999L105.6 21.0999Z" fill="#7510F7"/>
<path d="M99.3 21.2999C99.5 21.2999 99.7 21.1999 99.8 21.0999L101.4 19.4999C101.7 19.1999 101.7 18.6999 101.4 18.4999C101.1 18.1999 100.6 18.1999 100.4 18.4999L98.8 19.9999C98.5 20.2999 98.5 20.7999 98.8 20.9999C98.9 21.1999 99.1 21.2999 99.3 21.2999Z" fill="#7510F7"/>
<path d="M104.5 16.1C104.7 16.1 104.9 16 105 15.9L106.6 14.3C106.9 14 106.9 13.5 106.6 13.3C106.3 13 105.8 13 105.6 13.3L104 14.9C103.7 15.2 103.7 15.7 104 15.9C104.1 16 104.3 16.1 104.5 16.1Z" fill="#7510F7"/>
<path d="M1.79995 108.9C1.49995 108.6 0.999951 108.6 0.799951 108.9C0.499951 109.2 0.499951 109.7 0.799951 109.9L2.39995 111.5C2.49995 111.6 2.69995 111.7 2.89995 111.7C3.09995 111.7 3.29995 111.6 3.39995 111.5C3.69995 111.2 3.69995 110.7 3.39995 110.5L1.79995 108.9Z" fill="#7510F7"/>
<path d="M7.00002 114.1C6.70002 113.8 6.20002 113.8 6.00002 114.1C5.70002 114.4 5.70002 114.9 6.00002 115.1L7.60002 116.7C7.70002 116.8 7.90002 116.9 8.10002 116.9C8.30002 116.9 8.50002 116.8 8.60002 116.7C8.90002 116.4 8.90002 115.9 8.60002 115.7L7.00002 114.1Z" fill="#7510F7"/>
<path d="M2.29998 114.1L0.699976 115.7C0.399976 116 0.399976 116.5 0.699976 116.7C0.799976 116.8 0.999976 116.9 1.19998 116.9C1.39998 116.9 1.59998 116.8 1.69998 116.7L3.29998 115.1C3.59998 114.8 3.59998 114.3 3.29998 114.1C3.09998 113.9 2.59998 113.9 2.29998 114.1Z" fill="#7510F7"/>
<path d="M7.49993 108.9L5.89993 110.5C5.59993 110.8 5.59993 111.3 5.89993 111.5C5.99993 111.6 6.19993 111.7 6.39993 111.7C6.59993 111.7 6.79993 111.6 6.89993 111.5L8.49993 109.9C8.79993 109.6 8.79993 109.1 8.49993 108.9C8.19993 108.7 7.79993 108.7 7.49993 108.9Z" fill="#7510F7"/>
<path d="M119.5 63.5C119.6 63.6 119.8 63.7 120 63.7C120.2 63.7 120.4 63.6 120.5 63.5C120.8 63.2 120.8 62.7 120.5 62.5L118.9 60.9C118.6 60.6 118.1 60.6 117.9 60.9C117.6 61.2 117.6 61.7 117.9 61.9L119.5 63.5Z" fill="#7510F7"/>
<path d="M124.7 68.7C124.8 68.8 125 68.9 125.2 68.9C125.4 68.9 125.6 68.8 125.7 68.7C126 68.4 126 67.9 125.7 67.7L124.1 66.1C123.8 65.8 123.3 65.8 123.1 66.1C122.8 66.4 122.8 66.9 123.1 67.1L124.7 68.7Z" fill="#7510F7"/>
<path d="M118.4 69.0001C118.6 69.0001 118.8 68.9001 118.9 68.8001L120.5 67.2001C120.8 66.9001 120.8 66.4001 120.5 66.2001C120.2 65.9001 119.7 65.9001 119.5 66.2001L117.9 67.8001C117.6 68.1001 117.6 68.6001 117.9 68.8001C118 68.9001 118.2 69.0001 118.4 69.0001Z" fill="#7510F7"/>
<path d="M123.6 63.7999C123.8 63.7999 124 63.6999 124.1 63.5999L125.7 61.9999C126 61.6999 126 61.1999 125.7 60.9999C125.4 60.7999 124.9 60.6999 124.7 60.9999L123.1 62.5999C122.8 62.8999 122.8 63.3999 123.1 63.5999C123.2 63.6999 123.4 63.7999 123.6 63.7999Z" fill="#7510F7"/>
<path d="M4.60002 37.3001C5.00002 37.3001 5.30002 37.0001 5.30002 36.6001V24.8001C5.30002 24.4001 5.00002 24.1001 4.60002 24.1001C4.20002 24.1001 3.90002 24.4001 3.90002 24.8001V36.6001C3.90002 37.0001 4.20002 37.3001 4.60002 37.3001Z" fill="#7510F7"/>
<path d="M4.60002 47.1C5.00002 47.1 5.30002 46.8 5.30002 46.4V42.2C5.30002 41.8 5.00002 41.5 4.60002 41.5C4.20002 41.5 3.90002 41.8 3.90002 42.2V46.4C3.90002 46.8 4.20002 47.1 4.60002 47.1Z" fill="#7510F7"/>
<path d="M120 17.9C120.4 17.9 120.7 17.6 120.7 17.2V5.39995C120.7 4.99995 120.4 4.69995 120 4.69995C119.6 4.69995 119.3 4.99995 119.3 5.39995V17.2C119.2 17.6 119.6 17.9 120 17.9Z" fill="#7510F7"/>
<path d="M120 27.6C120.4 27.6 120.7 27.3 120.7 26.9V22.7C120.7 22.3 120.4 22 120 22C119.6 22 119.3 22.3 119.3 22.7V26.9C119.2 27.3 119.6 27.6 120 27.6Z" fill="#7510F7"/>
<path d="M48.7 108.2C46.8 108.2 45.2 109.8 45.2 111.7C45.2 113.6 46.8 115.2 48.7 115.2C50.6 115.2 52.2 113.6 52.2 111.7C52.2 109.7 50.6 108.2 48.7 108.2ZM48.7 113.7C47.6 113.7 46.7 112.8 46.7 111.7C46.7 110.6 47.6 109.7 48.7 109.7C49.8 109.7 50.7 110.6 50.7 111.7C50.7 112.8 49.8 113.7 48.7 113.7Z" fill="#7510F7"/>
<path d="M8.09998 77.8C8.09998 75.9 6.49998 74.3 4.59998 74.3C2.69998 74.3 1.09998 75.9 1.09998 77.8C1.09998 79.7 2.69998 81.3 4.59998 81.3C6.49998 81.3 8.09998 79.7 8.09998 77.8ZM4.59998 79.8C3.49998 79.8 2.59998 78.9 2.59998 77.8C2.59998 76.7 3.49998 75.8 4.59998 75.8C5.69998 75.8 6.59998 76.7 6.59998 77.8C6.59998 78.9 5.79998 79.8 4.59998 79.8Z" fill="#7510F7"/>
<path d="M20.7 15.5999C20.7 15.9999 21 16.2999 21.4 16.2999H36.7999C37.1999 16.2999 37.5 15.9999 37.5 15.5999C37.5 15.1999 37.1999 14.8999 36.7999 14.8999H21.5C21.1 14.8999 20.7 15.1999 20.7 15.5999Z" fill="#7510F7"/>
<path d="M11.4 16.4H16.4C16.8 16.4 17.1 16.1 17.1 15.7C17.1 15.3 16.8 15 16.4 15H11.4C11 15 10.7 15.3 10.7 15.7C10.7 16 11 16.4 11.4 16.4Z" fill="#7510F7"/>
<path d="M11.4 11.1H22.2C22.6 11.1 22.9 10.8 22.9 10.4C22.9 9.99995 22.6 9.69995 22.2 9.69995H11.4C11 9.69995 10.7 9.99995 10.7 10.4C10.7 10.7 11 11.1 11.4 11.1Z" fill="#7510F7"/>
<path d="M26.8 11.1H30.3C30.7 11.1 31 10.8 31 10.4C31 9.99995 30.7 9.69995 30.3 9.69995H26.8C26.4 9.69995 26.1 9.99995 26.1 10.4C26.1 10.7 26.4 11.1 26.8 11.1Z" fill="#7510F7"/>
<path d="M117.4 111.7C117.4 111.3 117.1 111 116.7 111H101.3C100.9 111 100.6 111.3 100.6 111.7C100.6 112.1 100.9 112.4 101.3 112.4H116.7C117.1 112.4 117.4 112.1 117.4 111.7Z" fill="#7510F7"/>
<path d="M121 111.7C121 112.1 121.3 112.4 121.7 112.4H126.7C127.1 112.4 127.4 112.1 127.4 111.7C127.4 111.3 127.1 111 126.7 111H121.7C121.4 110.9 121 111.3 121 111.7Z" fill="#7510F7"/>
<path d="M126.8 116.2H116C115.6 116.2 115.3 116.5 115.3 116.9C115.3 117.3 115.6 117.6 116 117.6H126.8C127.2 117.6 127.5 117.3 127.5 116.9C127.5 116.5 127.2 116.2 126.8 116.2Z" fill="#7510F7"/>
<path d="M111.4 116.2H107.9C107.5 116.2 107.2 116.5 107.2 116.9C107.2 117.3 107.5 117.6 107.9 117.6H111.4C111.8 117.6 112.1 117.3 112.1 116.9C112.1 116.5 111.8 116.2 111.4 116.2Z" fill="#7510F7"/>
<path d="M121.8 99.1L122.9 97.2C123.1 96.8 123.1 96.3 122.9 95.9C122.7 95.5 122.2 95.2 121.8 95.2H7.29993C6.79993 95.2 6.39993 95.5 6.19993 95.9C5.99993 96.3 5.99993 96.8 6.19993 97.2L7.29993 99.1C9.19993 102.3 12.7999 104.3 16.4999 104.3H112.5C116.3 104.3 119.8 102.3 121.8 99.1ZM8.59993 98.3L7.59993 96.7H121.4L120.4 98.3C118.7 101.1 115.7 102.8 112.4 102.8H16.3999C13.2999 102.8 10.2999 101.1 8.59993 98.3Z" fill="#7510F7"/>
<path d="M21.7 42.8001C21.7 43.2001 22 43.5001 22.4 43.5001H73.1999C73.5999 43.5001 73.9 43.2001 73.9 42.8001C73.9 42.4001 73.5999 42.1001 73.1999 42.1001H22.5C22.1 42.1001 21.7 42.4001 21.7 42.8001Z" fill="#7510F7"/>
<path d="M21.7 53.7C21.7 54.1 22 54.4 22.4 54.4H81.4C81.8 54.4 82.0999 54.1 82.0999 53.7C82.0999 53.3 81.8 53 81.4 53H22.4C22.1 53 21.7 53.3 21.7 53.7Z" fill="#7510F7"/>
<path d="M22.4999 58.5C22.0999 58.5 21.7999 58.8 21.7999 59.2C21.7999 59.6 22.0999 59.9 22.4999 59.9H95.3999C95.7999 59.9 96.0999 59.6 96.0999 59.2C96.0999 58.8 95.7999 58.5 95.3999 58.5H22.4999Z" fill="#7510F7"/>
<path d="M62.6999 49.0001C63.0999 49.0001 63.3999 48.7001 63.3999 48.3001C63.3999 47.9001 63.0999 47.6001 62.6999 47.6001H62.4999C62.0999 47.6001 61.7999 47.9001 61.7999 48.3001C61.7999 48.7001 62.0999 49.0001 62.4999 49.0001H62.6999Z" fill="#7510F7"/>
<path d="M46.5999 49.0001C46.9999 49.0001 47.2999 48.7001 47.2999 48.3001C47.2999 47.9001 46.9999 47.6001 46.5999 47.6001H46.4C46 47.6001 45.7 47.9001 45.7 48.3001C45.7 48.7001 46 49.0001 46.4 49.0001H46.5999Z" fill="#7510F7"/>
<path d="M22.5 49.0001H27.4C27.8 49.0001 28.1 48.7001 28.1 48.3001C28.1 47.9001 27.8 47.6001 27.4 47.6001H22.5C22.1 47.6001 21.8 47.9001 21.8 48.3001C21.7 48.7001 22.1 49.0001 22.5 49.0001Z" fill="#7510F7"/>
<path d="M30.5 49.0001C30.9 49.0001 31.2 48.7001 31.2 48.3001C31.2 47.9001 30.9 47.6001 30.5 47.6001H30.3C29.9 47.6001 29.6 47.9001 29.6 48.3001C29.6 48.7001 29.9 49.0001 30.3 49.0001H30.5Z" fill="#7510F7"/>
<path d="M54.3999 49.0001C54.4999 49.0001 54.4999 49.0001 54.3999 49.0001C54.4999 49.0001 54.5999 49.0001 54.5999 49.0001H59.4999C59.8999 49.0001 60.1999 48.7001 60.1999 48.3001C60.1999 47.9001 59.8999 47.6001 59.4999 47.6001H54.5999H54.4999H54.3999H51.4999C51.0999 47.6001 50.7999 47.9001 50.7999 48.3001C50.7999 48.7001 51.0999 49.0001 51.4999 49.0001H54.3999Z" fill="#7510F7"/>
<path d="M70.6 47.5H67.6C67.2 47.5 66.9 47.8 66.9 48.2C66.9 48.6 67.2 48.9 67.6 48.9H70.5H70.6H70.7H75.6C76 48.9 76.3 48.6 76.3 48.2C76.3 47.8 76 47.5 75.6 47.5H70.6C70.7 47.5 70.7 47.5 70.6 47.5Z" fill="#7510F7"/>
<path d="M78.5999 49.0001H78.7999C79.1999 49.0001 79.4999 48.7001 79.4999 48.3001C79.4999 47.9001 79.1999 47.6001 78.7999 47.6001H78.5999C78.1999 47.6001 77.8999 47.9001 77.8999 48.3001C77.7999 48.7001 78.1999 49.0001 78.5999 49.0001Z" fill="#7510F7"/>
<path d="M38.3999 49.0001C38.4999 49.0001 38.5999 49.0001 38.5999 49.0001H43.4999C43.8999 49.0001 44.1999 48.7001 44.1999 48.3001C44.1999 47.9001 43.8999 47.6001 43.4999 47.6001H38.5999H38.4999H38.3999H35.4999C35.0999 47.6001 34.7999 47.9001 34.7999 48.3001C34.7999 48.7001 35.0999 49.0001 35.4999 49.0001H38.3999Z" fill="#7510F7"/>
<path d="M83.6999 49.0001H86.5999H86.6999H86.7999H91.6999C92.0999 49.0001 92.3999 48.7001 92.3999 48.3001C92.3999 47.9001 92.0999 47.6001 91.6999 47.6001H86.7999H86.6999H86.5999H83.6999C83.2999 47.6001 82.9999 47.9001 82.9999 48.3001C82.8999 48.7001 83.2999 49.0001 83.6999 49.0001Z" fill="#7510F7"/>
<path d="M94.6999 49.0001H94.8999C95.2999 49.0001 95.5999 48.7001 95.5999 48.3001C95.5999 47.9001 95.2999 47.6001 94.8999 47.6001H94.6999C94.2999 47.6001 93.9999 47.9001 93.9999 48.3001C93.8999 48.7001 94.2999 49.0001 94.6999 49.0001Z" fill="#7510F7"/>
<path d="M99.8 49.0001H102.7H102.8H102.9H106.2C106.6 49.0001 106.9 48.7001 106.9 48.3001C106.9 47.9001 106.6 47.6001 106.2 47.6001H102.9H102.8H102.7H99.8C99.4 47.6001 99.1 47.9001 99.1 48.3001C99 48.7001 99.4 49.0001 99.8 49.0001Z" fill="#7510F7"/>
<path d="M47.0999 66.6001H22.4999C22.0999 66.6001 21.7999 66.9001 21.7999 67.3001V84.9001C21.7999 85.3001 22.0999 85.6001 22.4999 85.6001H47.0999C47.4999 85.6001 47.7999 85.3001 47.7999 84.9001V67.3001C47.7999 66.9001 47.4999 66.6001 47.0999 66.6001ZM46.3999 84.1001H23.1999V68.0001H46.2999V84.1001H46.3999Z" fill="#7510F7"/>
<path d="M76.5999 66.6001H51.9999C51.5999 66.6001 51.2999 66.9001 51.2999 67.3001V84.9001C51.2999 85.3001 51.5999 85.6001 51.9999 85.6001H76.5999C76.9999 85.6001 77.2999 85.3001 77.2999 84.9001V67.3001C77.2999 66.9001 76.9999 66.6001 76.5999 66.6001ZM75.8999 84.1001H52.6999V68.0001H75.7999V84.1001H75.8999Z" fill="#7510F7"/>
<path d="M106.1 66.6001H81.4999C81.0999 66.6001 80.7999 66.9001 80.7999 67.3001V84.9001C80.7999 85.3001 81.0999 85.6001 81.4999 85.6001H106.1C106.5 85.6001 106.8 85.3001 106.8 84.9001V67.3001C106.8 66.9001 106.5 66.6001 106.1 66.6001ZM105.4 84.1001H82.1999V68.0001H105.3V84.1001H105.4Z" fill="#7510F7"/>
</svg>
